<svg width="20.000000" height="20.000061" viewBox="0 0 20 20.0001" fill="none" xmlns="http://www.w3.org/2000/svg" xmlns:xlink="http://www.w3.org/1999/xlink">
	<desc>
			Created with Pixso.
	</desc>
	<path d="M17.8979 7.46088L17.8979 6.22272C17.8979 5.69409 17.4952 5.26312 16.999 5.26312C16.5038 5.26312 16.1 5.69409 16.1 6.22272L16.1 7.46088L14.899 7.46088C14.4027 7.46088 14 7.89185 14 8.42047C14 8.9491 14.4027 9.38007 14.899 9.38007L16.1 9.38007L16.1 10.6193C16.1 11.1479 16.5038 11.5789 16.999 11.5789C17.4952 11.5789 17.8979 11.1479 17.8979 10.6193L17.8979 9.38007L19.101 9.38007C19.5962 9.38007 20 8.9491 20 8.42047C20 7.89185 19.5962 7.46088 19.101 7.46088L17.8979 7.46088Z" fill="#1979FF"/>
	<path d="M0 16.5754C0 19.2946 3.4332 20.0001 7.5 20.0001C11.5448 20.0001 15 19.3192 15 16.5989C15 13.8786 11.5668 13.1743 7.5 13.1743C3.45422 13.1743 0 13.8551 0 16.5754Z" fill="#1979FF"/>
	<g opacity="0.400000">
		<path d="M12.4626 5.29224C12.4626 2.35529 10.2546 0 7.49998 0C4.74541 0 2.53735 2.35529 2.53735 5.29224C2.53735 8.22913 4.74541 10.5834 7.49998 10.5834C10.2546 10.5834 12.4626 8.22913 12.4626 5.29224Z" fill="#1979FF"/>
	</g>
	<defs/>
</svg>
