<svg width="30.000000" height="30.000000" viewBox="0 0 30 30" fill="none" xmlns="http://www.w3.org/2000/svg" xmlns:xlink="http://www.w3.org/1999/xlink">
	<desc>
			Created with Pixso.
	</desc>
	<g opacity="0.400000">
		<path d="M0 15C0 6.729 6.72754 0 15 0C23.271 0 30 6.729 30 15C30 23.271 23.271 30 15 30C6.72754 30 0 23.271 0 15Z" fill="#CAE0FF"/>
	</g>
	<path d="M16.37 21.0026L11.1395 15.7975C10.928 15.5861 10.8096 15.2996 10.8096 14.9996C10.8096 14.701 10.928 14.4146 11.1395 14.2031L16.37 8.99506C16.8096 8.55707 17.5205 8.55707 17.9601 8.99805C18.3981 9.43909 18.3965 10.1516 17.957 10.5895L13.5276 14.9996L17.957 19.4095C18.3965 19.8475 18.3981 20.5585 17.9601 20.9996C17.7411 21.2216 17.4515 21.3311 17.1636 21.3311C16.8771 21.3311 16.589 21.2216 16.37 21.0026Z" fill="#1979FF"/>
	<defs/>
</svg>
