<svg width="30.000000" height="30.000000" viewBox="0 0 30 30" fill="none" xmlns="http://www.w3.org/2000/svg" xmlns:xlink="http://www.w3.org/1999/xlink">
	<desc>
			Created with Pixso.
	</desc>
	<circle cx="15.000000" cy="15.000000" r="15.000000" fill="#CEE3FF"/>
	<path d="M19.89 13.5541C19.89 13.1795 19.5825 12.8724 19.2075 12.8724C18.8325 12.8724 18.5325 13.1795 18.5325 13.5541C18.5325 13.9287 18.8325 14.2284 19.2075 14.2284C19.5825 14.2284 19.89 13.9287 19.89 13.5541ZM12.915 18.0791C12.36 17.5172 12.0525 16.7831 12.0525 15.9964C12.045 15.2173 12.3525 14.4831 12.9075 13.9212C13.47 13.3593 14.2125 13.0522 15 13.0522C15.7875 13.0522 16.53 13.3593 17.085 13.9137C17.64 14.4756 17.9475 15.2173 17.9475 15.9964C17.94 16.813 17.61 17.5472 17.0775 18.0791C16.545 18.611 15.81 18.9406 15 18.9406C14.2125 18.9406 13.4775 18.6335 12.915 18.0791ZM13.1775 15.9889L13.1775 15.9963C13.1775 16.4833 13.365 16.9403 13.71 17.2849C14.055 17.6295 14.5125 17.8168 15 17.8168C16.005 17.8168 16.815 17.0002 16.8224 15.9963C16.8224 15.5094 16.6349 15.0524 16.2899 14.7078C15.945 14.3632 15.4875 14.1759 15 14.1759C14.5125 14.1759 14.055 14.3632 13.7025 14.7153C13.3575 15.0599 13.17 15.5169 13.1775 15.9889Z" fill="#1979FF" fill-opacity="1.000000"/>
	<g opacity="0.400000">
		<path d="M19.005 10.5125C18.8025 10.0854 18.57 9.591 18.4275 9.30634C18.0825 8.63208 17.49 8.25748 16.7625 8.25L13.23 8.25C12.5025 8.25748 11.9175 8.63208 11.5725 9.30634C11.4225 9.60599 11.1675 10.1454 10.9575 10.5874L10.9125 10.6773C10.89 10.7372 10.83 10.7672 10.77 10.7672C8.96249 10.7672 7.5 12.2356 7.5 14.0336L7.5 18.4836C7.5 20.2816 8.96249 21.75 10.77 21.75L19.23 21.75C21.03 21.75 22.5 20.2816 22.5 18.4836L22.5 14.0336C22.5 12.2356 21.03 10.7672 19.23 10.7672C19.1625 10.7672 19.11 10.7297 19.08 10.6773L19.005 10.5125Z" fill="#006AFF"/>
	</g>
	<defs/>
</svg>
