<svg width="12.000015" height="12.000000" viewBox="0 0 12 12" fill="none" xmlns="http://www.w3.org/2000/svg" xmlns:xlink="http://www.w3.org/1999/xlink">
	<desc>
			Created with Pixso.
	</desc>
	<g opacity="0.400000">
		<path d="M0 6.00901C0 7.01852 0.294006 8.05809 0.809998 9.00751C0.906006 9.16374 0.917999 9.36205 0.852005 9.54832L0.449997 10.8943C0.360001 11.2188 0.636002 11.4592 0.942001 11.363L2.15401 11.0025C2.48399 10.8943 2.742 11.0325 3.0486 11.2188C3.92461 11.7356 5.01601 12 6 12C8.976 12 12 9.69855 12 5.99099C12 2.79419 9.42 0 6.01199 0C2.526 0 0 2.84827 0 6.00901Z" fill="#1979FF"/>
	</g>
	<path d="M5.98834 5.24593C6.41434 5.24593 6.75633 5.58844 6.75633 6.01508C6.75633 6.43571 6.41434 6.78423 5.98834 6.78423C5.56233 6.77822 5.22034 6.43571 5.22034 6.00907C5.22034 5.58844 5.56834 5.23991 5.98834 5.24593ZM3.22211 5.24597C3.6481 5.24597 3.9901 5.58849 3.9901 6.01513C3.9901 6.43575 3.6481 6.77827 3.22211 6.78428C2.80211 6.78428 2.4541 6.43575 2.4541 6.01513C2.4541 5.58849 2.7961 5.24597 3.22211 5.24597ZM9.52211 6.01513C9.52211 5.58849 9.18007 5.24597 8.75409 5.24597C8.32808 5.24597 7.98608 5.58849 7.98608 6.01513C7.98608 6.43575 8.32808 6.78428 8.75409 6.78428C9.18007 6.78428 9.52211 6.43575 9.52211 6.01513Z" fill="#200E32" fill-opacity="1.000000"/>
	<defs/>
</svg>
