<svg width="46.000000" height="46.000000" viewBox="0 0 46 46" fill="none" xmlns="http://www.w3.org/2000/svg" xmlns:xlink="http://www.w3.org/1999/xlink">
	<desc>
			Created with Pixso.
	</desc>
	<rect width="46.000000" height="46.000000" fill="#FFF9E3"/>
	<path d="M30.3628 21.1352C30.6196 20.8784 31.033 20.8691 31.3011 21.1141L32.5684 22.3801C32.7028 22.5169 32.7723 22.7047 32.7592 22.896L32.7606 22.896L32.7606 28.16C32.7606 29.6136 31.5822 30.792 30.1285 30.792L15.6525 30.792C14.1989 30.792 13.0206 29.6136 13.0206 28.16L13.0206 22.9039C13.0104 22.7134 13.0811 22.5275 13.2153 22.392L14.4905 21.1181C14.6631 20.9453 14.9147 20.8777 15.1506 20.9407C15.3865 21.0038 15.5709 21.1879 15.6342 21.4237C15.6976 21.6595 15.6303 21.9113 15.4578 22.084L14.6445 22.896L16.9686 22.896L16.9686 16.316C16.9686 15.5892 17.5577 15 18.2845 15L27.4966 15C28.2234 15 28.8126 15.5892 28.8126 16.316L28.8126 22.896L31.1629 22.896L30.3417 22.0735C30.0967 21.8054 30.106 21.392 30.3628 21.1352ZM27.4965 22.896L27.4965 16.316L18.2845 16.316L18.2845 22.896L27.4965 22.896Z" fill="#FFDB55" fill-opacity="1.000000"/>
	<g opacity="0.400000">
		<path d="M19.6006 18.29C19.6006 17.9266 19.8952 17.632 20.2586 17.632L25.5226 17.632C25.886 17.632 26.1806 17.9266 26.1806 18.29C26.1806 18.6534 25.886 18.948 25.5226 18.948L20.2586 18.948C19.8952 18.948 19.6006 18.6534 19.6006 18.29ZM19.6006 20.922C19.6006 20.5586 19.8952 20.264 20.2586 20.264L25.5226 20.264C25.886 20.264 26.1806 20.5586 26.1806 20.922C26.1806 21.2854 25.886 21.58 25.5226 21.58L20.2586 21.58C19.8952 21.58 19.6006 21.2854 19.6006 20.922Z" fill="#C9B97C" fill-opacity="1.000000"/>
	</g>
	<defs/>
</svg>
