<svg width="46.000000" height="46.000000" viewBox="0 0 46 46" fill="none" xmlns="http://www.w3.org/2000/svg" xmlns:xlink="http://www.w3.org/1999/xlink">
	<desc>
			Created with Pixso.
	</desc>
	<rect rx="23.000000" width="46.000000" height="46.000000" fill="#FAE9FE"/>
	<path d="M13.9742 16.2314L31.5092 16.2314C32.1586 16.2314 32.4834 16.5561 32.4834 17.2056L32.4834 28.0432C32.4834 28.6926 32.1586 29.0174 31.5092 29.0174L13.9742 29.0174C13.3247 29.0174 13 28.6926 13 28.0432L13 17.2056C13 16.5561 13.3247 16.2314 13.9742 16.2314Z" fill="#AD4EBD"/>
	<path d="M13.9742 29.0173L31.5092 29.0173C32.0472 29.0173 32.4834 28.5812 32.4834 28.0432L32.4834 26.2775C27.2764 22.0561 24.0292 19.9454 22.7417 19.9454C21.4542 19.9454 18.2069 22.0561 13 26.2775L13 28.0432C13 28.5812 13.4362 29.0173 13.9742 29.0173Z" fill="#D9BCFA"/>
	<path d="M13.9742 16.2314L31.5092 16.2314C32.0472 16.2314 32.4834 16.6675 32.4834 17.2056L32.4834 18.9712C26.9839 22.7867 23.7366 24.6945 22.7417 24.6945C21.7467 24.6945 18.4995 22.7867 13 18.9712L13 17.2056C13 16.6675 13.4362 16.2314 13.9742 16.2314Z" fill="#C936E2"/>
	<defs/>
</svg>
