<svg width="46.000000" height="46.000000" viewBox="0 0 46 46" fill="none" xmlns="http://www.w3.org/2000/svg" xmlns:xlink="http://www.w3.org/1999/xlink">
	<desc>
			Created with Pixso.
	</desc>
	<g opacity="0.400000">
		<rect rx="23.000000" width="46.000000" height="46.000000" fill="#B8ECFF"/>
	</g>
	<path d="M16.7299 15.1104L20.2678 16.8626C20.738 17.0955 21.1199 17.6666 21.1199 18.1378L21.1754 28.5334C21.2159 28.5239 21.2582 28.5188 21.3016 28.5188L25.9678 28.5188L25.9678 24.8575L27.0782 24.8575L27.0782 29.074C27.0782 29.3806 26.8296 29.6292 26.523 29.6292L21.3016 29.6292C21.2602 29.6292 21.22 29.6245 21.1812 29.6159L21.1973 32.6276C21.1973 32.7857 21.0695 32.846 20.9119 32.7623L14.6914 29.3115C14.3091 29.1085 14.0001 28.6294 14.0007 28.2411L14.0212 14.7069C14.0075 14.6587 14 14.6078 14 14.5552C14 14.4951 14.0096 14.4374 14.0273 14.3833C14.0547 14.1771 14.1826 14.0524 14.3629 14.0342C14.4228 14.0121 14.4875 14 14.5552 14L26.5089 14C26.8156 14 27.0641 14.2486 27.0641 14.5552C27.0641 14.5937 27.0602 14.6313 27.0527 14.6676C27.0602 14.7039 27.0641 14.7415 27.0641 14.78L27.0641 20.0999L25.9538 20.0999L25.9538 15.1104L16.7299 15.1104Z" fill="#38CAFF" fill-opacity="1.000000"/>
	<path d="M29.9291 24.7099L29.9235 24.7099L29.868 24.6572L29.868 23.0936L22.3627 23.0936L22.3627 21.9341L29.868 21.9341L29.868 20.3212L32.0887 22.4352L32.0887 22.4413L29.9291 24.7099Z" fill="#A4E6FF"/>
	<defs/>
</svg>
