<svg width="277.728027" height="406.727997" viewBox="0 0 277.728 406.728" fill="none" xmlns="http://www.w3.org/2000/svg" xmlns:xlink="http://www.w3.org/1999/xlink">
	<desc>
			Created with Pixso.
	</desc>
	<g filter="url(#filter_2_715_dd)">
		<path d="M139 267.728L139 202.364C139 166.264 168.264 137 204.364 137L269.728 137L269.728 267.728L139 267.728Z" fill-rule="evenodd" fill="#83D7F6"/>
	</g>
	<g filter="url(#filter_2_716_dd)">
		<path d="M265.728 136.728L139 136.728L139 71.364C139 35.2645 168.265 6 204.364 6C240.464 6 269.728 35.2645 269.728 71.364L269.728 132.728C269.728 134.937 267.937 136.728 265.728 136.728Z" fill-rule="evenodd" fill="#68A7FF"/>
	</g>
	<g filter="url(#filter_2_717_dd)">
		<path d="M139 398.728L139 333.364C139 297.264 168.264 268 204.364 268L269.728 268L269.728 333.364C269.728 369.464 240.464 398.728 204.364 398.728L139 398.728Z" fill-rule="evenodd" fill="#F7E7B0"/>
	</g>
	<g filter="url(#filter_2_718_dd)">
		<ellipse cx="73.364990" cy="71.892151" rx="65.364998" ry="65.892136" fill="#79CADE"/>
	</g>
	<g filter="url(#filter_2_719_dd)">
		<path d="M73.364 268L138.728 268L138.728 392.728C138.728 396.042 136.042 398.728 132.728 398.728L73.364 398.728C37.2644 398.728 8 369.464 8 333.364C8 297.264 37.2644 268 73.364 268Z" fill-rule="evenodd" fill="#E59DF1"/>
	</g>
	<g filter="url(#filter_2_721_dd)">
		<path d="M139 267.728L139 202.364C139 166.264 168.264 137 204.364 137L269.728 137L269.728 267.728L139 267.728Z" fill-rule="evenodd" fill="#3CCAFF"/>
	</g>
	<g filter="url(#filter_2_722_dd)">
		<path d="M265.728 136.728L139 136.728L139 71.364C139 35.2645 168.265 6 204.364 6C240.464 6 269.728 35.2645 269.728 71.364L269.728 132.728C269.728 134.937 267.937 136.728 265.728 136.728Z" fill-rule="evenodd" fill="#1979FF"/>
	</g>
	<g filter="url(#filter_2_724_dd)">
		<path d="M138.728 267.728L87.0547 267.728C43.394 267.728 8 232.334 8 188.673C8 160.135 31.135 137 59.6733 137L73.364 137C109.464 137 138.728 166.264 138.728 202.364L138.728 267.728Z" fill-rule="evenodd" fill="#FF5A5A"/>
	</g>
	<g filter="url(#filter_2_725_dd)">
		<path d="M139 398.728L139 333.364C139 297.265 168.264 268 204.364 268L269.728 268L269.728 333.364C269.728 369.464 240.464 398.728 204.364 398.728L139 398.728Z" fill-rule="evenodd" fill="#F7E8AC"/>
	</g>
	<g filter="url(#filter_2_726_dd)">
		<ellipse cx="73.364990" cy="71.892151" rx="65.364998" ry="65.892136" fill="#A6D2FF"/>
	</g>
	<g filter="url(#filter_2_727_dd)">
		<path d="M73.364 268L138.728 268L138.728 392.728C138.728 396.042 136.042 398.728 132.728 398.728L73.364 398.728C37.2644 398.728 8 369.464 8 333.364C8 297.264 37.2644 268 73.364 268Z" fill-rule="evenodd" fill="#DF77D7"/>
	</g>
	<defs>
		<filter id="filter_2_715_dd" x="134.000000" y="132.000000" width="140.728027" height="140.728027" filterUnits="userSpaceOnUse" color-interpolation-filters="sRGB">
			<feFlood flood-opacity="0" result="BackgroundImageFix"/>
			<feBlend mode="normal" in="SourceGraphic" in2="BackgroundImageFix" result="shape"/>
			<feGaussianBlur stdDeviation="2.5" result="effect_layerBlur_1"/>
		</filter>
		<filter id="filter_2_716_dd" x="134.000000" y="1.000000" width="140.728027" height="140.727997" filterUnits="userSpaceOnUse" color-interpolation-filters="sRGB">
			<feFlood flood-opacity="0" result="BackgroundImageFix"/>
			<feBlend mode="normal" in="SourceGraphic" in2="BackgroundImageFix" result="shape"/>
			<feGaussianBlur stdDeviation="2.5" result="effect_layerBlur_1"/>
		</filter>
		<filter id="filter_2_717_dd" x="131.000000" y="259.999969" width="146.728027" height="146.728027" filterUnits="userSpaceOnUse" color-interpolation-filters="sRGB">
			<feFlood flood-opacity="0" result="BackgroundImageFix"/>
			<feBlend mode="normal" in="SourceGraphic" in2="BackgroundImageFix" result="shape"/>
			<feGaussianBlur stdDeviation="4" result="effect_layerBlur_1"/>
		</filter>
		<filter id="filter_2_718_dd" x="2.000000" y="0.000000" width="142.729980" height="143.784271" filterUnits="userSpaceOnUse" color-interpolation-filters="sRGB">
			<feFlood flood-opacity="0" result="BackgroundImageFix"/>
			<feBlend mode="normal" in="SourceGraphic" in2="BackgroundImageFix" result="shape"/>
			<feGaussianBlur stdDeviation="3" result="effect_layerBlur_1"/>
		</filter>
		<filter id="filter_2_719_dd" x="0.000000" y="259.999969" width="146.728027" height="146.727997" filterUnits="userSpaceOnUse" color-interpolation-filters="sRGB">
			<feFlood flood-opacity="0" result="BackgroundImageFix"/>
			<feBlend mode="normal" in="SourceGraphic" in2="BackgroundImageFix" result="shape"/>
			<feGaussianBlur stdDeviation="4" result="effect_layerBlur_1"/>
		</filter>
		<filter id="filter_2_721_dd" x="139.000000" y="136.999969" width="130.728027" height="130.728027" filterUnits="userSpaceOnUse" color-interpolation-filters="sRGB">
			<feFlood flood-opacity="0" result="BackgroundImageFix"/>
			<feGaussianBlur in="BackgroundImage" stdDeviation="10"/>
			<feComposite in2="SourceAlpha" operator="in" result="effect_backgroundBlur_1"/>
			<feBlend mode="normal" in="SourceGraphic" in2="effect_backgroundBlur_1" result="shape"/>
		</filter>
		<filter id="filter_2_722_dd" x="139.000000" y="6.000000" width="130.728027" height="130.727997" filterUnits="userSpaceOnUse" color-interpolation-filters="sRGB">
			<feFlood flood-opacity="0" result="BackgroundImageFix"/>
			<feGaussianBlur in="BackgroundImage" stdDeviation="10"/>
			<feComposite in2="SourceAlpha" operator="in" result="effect_backgroundBlur_1"/>
			<feBlend mode="normal" in="SourceGraphic" in2="effect_backgroundBlur_1" result="shape"/>
		</filter>
		<filter id="filter_2_724_dd" x="8.000000" y="137.000000" width="130.728027" height="130.727997" filterUnits="userSpaceOnUse" color-interpolation-filters="sRGB">
			<feFlood flood-opacity="0" result="BackgroundImageFix"/>
			<feGaussianBlur in="BackgroundImage" stdDeviation="10"/>
			<feComposite in2="SourceAlpha" operator="in" result="effect_backgroundBlur_1"/>
			<feBlend mode="normal" in="SourceGraphic" in2="effect_backgroundBlur_1" result="shape"/>
		</filter>
		<filter id="filter_2_725_dd" x="139.000000" y="268.000061" width="130.728027" height="130.727997" filterUnits="userSpaceOnUse" color-interpolation-filters="sRGB">
			<feFlood flood-opacity="0" result="BackgroundImageFix"/>
			<feGaussianBlur in="BackgroundImage" stdDeviation="10"/>
			<feComposite in2="SourceAlpha" operator="in" result="effect_backgroundBlur_1"/>
			<feBlend mode="normal" in="SourceGraphic" in2="effect_backgroundBlur_1" result="shape"/>
		</filter>
		<filter id="filter_2_726_dd" x="8.000000" y="6.000000" width="130.729980" height="131.784271" filterUnits="userSpaceOnUse" color-interpolation-filters="sRGB">
			<feFlood flood-opacity="0" result="BackgroundImageFix"/>
			<feGaussianBlur in="BackgroundImage" stdDeviation="10"/>
			<feComposite in2="SourceAlpha" operator="in" result="effect_backgroundBlur_1"/>
			<feBlend mode="normal" in="SourceGraphic" in2="effect_backgroundBlur_1" result="shape"/>
		</filter>
		<filter id="filter_2_727_dd" x="8.000000" y="267.999969" width="130.728027" height="130.727997" filterUnits="userSpaceOnUse" color-interpolation-filters="sRGB">
			<feFlood flood-opacity="0" result="BackgroundImageFix"/>
			<feGaussianBlur in="BackgroundImage" stdDeviation="10"/>
			<feComposite in2="SourceAlpha" operator="in" result="effect_backgroundBlur_1"/>
			<feBlend mode="normal" in="SourceGraphic" in2="effect_backgroundBlur_1" result="shape"/>
		</filter>
	</defs>
</svg>
