<svg width="12.486359" height="11.875153" viewBox="0 0 12.4864 11.8752" fill="none" xmlns="http://www.w3.org/2000/svg" xmlns:xlink="http://www.w3.org/1999/xlink">
	<desc>
			Created with Pixso.
	</desc>
	<g opacity="0.400000">
		<path d="M2.1413 8.67474C1.29294 7.8336 0.64505 6.80654 0.247101 5.67204C-0.463898 3.45952 0.36377 0.930923 2.67456 0.180252C3.89426 -0.202789 5.22079 0.0323486 6.24078 0.812393L6.24078 0.812393C7.26117 0.0332184 8.58725 -0.201843 9.80701 0.180252C12.1178 0.930923 12.951 3.45952 12.24 5.67204C11.8453 6.80547 11.2013 7.83244 10.3569 8.67474C9.15411 9.85155 7.82782 10.8907 6.40189 11.7734L6.24634 11.875L6.09637 11.7734C4.66946 10.8921 3.34302 9.85284 2.1413 8.67474Z" fill="#1979FF"/>
	</g>
	<path d="M6.10999 11.7735C4.68134 10.8923 3.35306 9.85304 2.14938 8.67487C1.297 7.83488 0.645233 6.80773 0.24408 5.67216C-0.461395 3.45964 0.366272 0.931046 2.67709 0.180374C3.89679 -0.202667 5.24081 0.0326385 6.25681 0.819229L6.25681 11.8751L6.10999 11.7735Z" fill="#6591CF"/>
	<path d="M10.1303 4.37451C10.0048 4.36643 9.88788 4.30369 9.80701 4.20098C9.7261 4.09827 9.68832 3.96462 9.70251 3.83135L9.70251 3.83135C9.71613 3.39238 9.46634 2.99281 9.08115 2.83736C8.83691 2.77068 8.689 2.50616 8.75009 2.24531C8.80807 1.98864 9.04843 1.82904 9.28998 1.88682C9.32047 1.89188 9.34985 1.90292 9.37656 1.9194C10.1489 2.21661 10.6489 3.0165 10.6091 3.8911C10.6078 4.02366 10.5562 4.14999 10.4659 4.24113C10.3756 4.33228 10.2545 4.38042 10.1303 4.37451L10.1303 4.37451Z" fill="#200E32"/>
	<defs/>
</svg>
