<svg width="46.000000" height="46.000000" viewBox="0 0 46 46" fill="none" xmlns="http://www.w3.org/2000/svg" xmlns:xlink="http://www.w3.org/1999/xlink">
	<desc>
			Created with Pixso.
	</desc>
	<rect rx="23.000000" width="46.000000" height="46.000000" fill="#FFE6F4"/>
	<path d="M23.5 14C18.2532 14 14 18.2531 14 23.5C14 28.7469 18.2532 33 23.5 33C28.7468 33 33 28.7469 33 23.5C33 18.2531 28.7491 14 23.5 14ZM25.3644 23.1702C25.5692 22.9676 25.7407 22.7249 25.8899 22.4444C26.0391 22.1616 26.1103 21.8343 26.1081 21.4625C26.1081 20.9882 25.9789 20.5496 25.7206 20.1466C25.4623 19.7435 25.0972 19.4229 24.6229 19.1891C24.1509 18.9554 23.6032 18.8373 22.9865 18.8373C22.3207 18.8373 21.7396 18.9776 21.2408 19.2582C20.7421 19.5387 20.3613 19.8927 20.103 20.3202C19.8425 20.7477 19.7134 21.1685 19.7134 21.5849C19.7134 21.7853 19.7958 21.9723 19.9605 22.146C20.1253 22.3175 20.3279 22.4043 20.5662 22.4043C20.9714 22.4043 21.2475 22.1572 21.3922 21.6606C21.5436 21.1886 21.7307 20.8301 21.9533 20.5874C22.1737 20.3447 22.5189 20.2223 22.9886 20.2223C23.3894 20.2223 23.7167 20.3447 23.9706 20.5852C24.2244 20.8257 24.3513 21.1218 24.3513 21.4714C24.3513 21.6539 24.309 21.8187 24.2266 21.9723C24.1442 22.1282 24.0418 22.2663 23.9194 22.3909C23.7991 22.5179 23.6032 22.7027 23.3293 22.9476C23.0176 23.2259 22.7704 23.4708 22.5879 23.6734C22.4053 23.8783 22.2584 24.1143 22.147 24.3837C22.0357 24.6531 21.98 24.9738 21.98 25.3411C21.98 25.6373 22.0557 25.8577 22.2072 26.0069C22.3585 26.1583 22.5433 26.2318 22.766 26.2318C23.1913 26.2318 23.4473 26.0046 23.5275 25.5482C23.5742 25.3345 23.6099 25.1853 23.6321 25.0984C23.6544 25.0116 23.6878 24.9248 23.7301 24.8401C23.7747 24.7555 23.8392 24.6598 23.926 24.5574C24.0129 24.455 24.1287 24.3347 24.2734 24.1989C24.7988 23.718 25.1618 23.3751 25.3644 23.1702ZM22.913 29.271C22.3251 29.271 21.8464 28.7834 21.8464 28.1845C21.8464 27.5833 22.3229 27.0979 22.913 27.0979C23.5008 27.0979 23.9795 27.5833 23.9795 28.1845C23.9795 28.7856 23.5008 29.271 22.913 29.271Z" fill-rule="evenodd" clip-rule="evenodd" fill="#FF5A5A" fill-opacity="1.000000"/>
	<defs/>
</svg>
