<svg width="258.000000" height="260.000000" viewBox="0 0 258 260" fill="none" xmlns="http://www.w3.org/2000/svg" xmlns:xlink="http://www.w3.org/1999/xlink">
	<desc>
			Created with Pixso.
	</desc>
	<mask id="mask2_639" mask-type="alpha" maskUnits="userSpaceOnUse" x="0.000000" y="0.000000" width="258.000000" height="260.000000">
		<rect width="258.000000" height="260.000000" fill="#FFFFFF"/>
	</mask>
	<g mask="url(#mask2_639)"/>
	<g mask="url(#mask2_639)">
		<rect x="44.698181" y="-71.292969" rx="18.000000" width="134.000000" height="104.000000" transform="rotate(75 44.698181 -71.292969)" fill="#3388FF"/>
	</g>
	<g mask="url(#mask2_639)">
		<rect width="258.000000" height="260.000000" fill="#1979FF"/>
		<g filter="url(#filter_2_643_dd)">
			<path d="M206.219 29L206.219 262.415L177.244 262.415C159.463 262.415 145.049 248 145.049 230.22L145.049 192.976C142.44 198.347 136.933 202.049 130.561 202.049C121.685 202.049 114.488 194.866 114.463 185.996L114.463 198.024C114.463 215.805 100.049 230.219 82.2683 230.219L82.2682 261.61L50.0731 261.61L50.0731 169.854C50.0731 152.073 64.4874 137.659 82.2682 137.659L82.2683 107.073C82.2683 98.1827 89.4755 90.9756 98.3658 90.9756C107.256 90.9756 114.463 98.1827 114.463 107.073L114.463 153.711C114.488 144.841 121.685 137.659 130.561 137.659C136.933 137.659 142.44 141.361 145.049 146.731L145.049 108.683C145.049 90.902 159.463 76.4878 177.244 76.4878L177.244 29L206.219 29ZM98.3658 90.9756C89.4755 90.9756 82.2683 83.7685 82.2683 74.878C82.2683 65.9876 89.4755 58.7805 98.3658 58.7805C107.256 58.7805 114.463 65.9876 114.463 74.878C114.463 83.7685 107.256 90.9756 98.3658 90.9756ZM82.2683 261.61C82.2683 244.273 96.3222 230.219 113.659 230.219C130.995 230.219 145.049 244.273 145.049 261.61C145.049 278.946 130.995 293 113.659 293C96.3222 293 82.2683 278.946 82.2683 261.61ZM215.073 95.8049C213.295 95.8049 211.854 94.3634 211.854 92.5854C211.854 90.8073 213.295 89.3658 215.073 89.3658C216.851 89.3658 218.293 90.8073 218.293 92.5854C218.293 94.3634 216.851 95.8049 215.073 95.8049ZM211.854 103.854C211.854 105.632 213.295 107.073 215.073 107.073C216.851 107.073 218.293 105.632 218.293 103.854C218.293 102.076 216.851 100.634 215.073 100.634C213.295 100.634 211.854 102.076 211.854 103.854ZM215.073 118.341C213.295 118.341 211.854 116.9 211.854 115.122C211.854 113.344 213.295 111.902 215.073 111.902C216.851 111.902 218.293 113.344 218.293 115.122C218.293 116.9 216.851 118.341 215.073 118.341ZM211.854 126.39C211.854 128.168 213.295 129.61 215.073 129.61C216.851 129.61 218.293 128.168 218.293 126.39C218.293 124.612 216.851 123.171 215.073 123.171C213.295 123.171 211.854 124.612 211.854 126.39ZM215.073 140.878C213.295 140.878 211.854 139.437 211.854 137.659C211.854 135.881 213.295 134.439 215.073 134.439C216.851 134.439 218.293 135.881 218.293 137.659C218.293 139.437 216.851 140.878 215.073 140.878ZM211.854 148.927C211.854 150.705 213.295 152.146 215.073 152.146C216.851 152.146 218.293 150.705 218.293 148.927C218.293 147.149 216.851 145.707 215.073 145.707C213.295 145.707 211.854 147.149 211.854 148.927ZM130.53 169.854C121.669 169.871 114.488 177.047 114.463 185.906L114.463 153.801C114.488 162.66 121.669 169.837 130.53 169.854ZM215.073 163.415C213.295 163.415 211.854 161.973 211.854 160.195C211.854 158.417 213.295 156.976 215.073 156.976C216.851 156.976 218.293 158.417 218.293 160.195C218.293 161.973 216.851 163.415 215.073 163.415ZM130.592 169.854C136.951 169.866 142.444 173.564 145.049 178.926L145.049 160.781C142.444 166.143 136.951 169.842 130.592 169.854Z" fill="#2F3293" fill-opacity="1.000000"/>
		</g>
	</g>
	<path d="M233.077 28.3125C231.152 26.1291 231.231 23.6179 231.231 20C225.057 22.2468 226.492 28.721 226.308 30.6875C224.755 29.4604 224.462 26.5312 224.462 26.5312C222.822 27.3451 222 29.5182 222 31.2812C222 35.5436 225.582 39 230 39C234.418 39 238 35.5436 238 31.2812C238 28.7479 236.072 27.5794 236.095 24.1285C233.397 24.8703 232.903 26.9754 233.077 28.3125Z" fill="url(#paint_radial_2_1261_0)" fill-opacity="1.000000"/>
	<defs>
		<filter id="filter_2_643_dd" x="43.073120" y="22.000000" width="182.219543" height="277.999969" filterUnits="userSpaceOnUse" color-interpolation-filters="sRGB">
			<feFlood flood-opacity="0" result="BackgroundImageFix"/>
			<feBlend mode="normal" in="SourceGraphic" in2="BackgroundImageFix" result="shape"/>
			<feGaussianBlur stdDeviation="3.5" result="effect_layerBlur_1"/>
		</filter>
		<radialGradient id="paint_radial_2_1261_0" cx="0.000000" cy="0.000000" r="1.000000" gradientUnits="userSpaceOnUse" gradientTransform="translate(230 32.7569) rotate(90) scale(8.9348 8.9348)">
			<stop stop-color="#FFDA64"/>
			<stop offset="1.000000" stop-color="#FF9059"/>
		</radialGradient>
	</defs>
</svg>
