<svg width="26.000000" height="31.000000" viewBox="0 0 26 31" fill="none" xmlns="http://www.w3.org/2000/svg" xmlns:xlink="http://www.w3.org/1999/xlink">
	<desc>
			Created with Pixso.
	</desc>
	<g filter="url(#filter_2_907_dd)">
		<path d="M10.8954 24.1431C10.8954 23.9876 11.361 23.8613 11.9378 23.8604L14.0556 23.8604C14.6349 23.8604 15.1046 23.9869 15.1046 24.1431L15.1046 24.1431L15.1046 24.7546C15.1046 24.8895 15.5082 24.999 16.0085 25L17.4533 25C18.1281 25.0005 18.7759 24.9286 19.2537 24.8001C19.7315 24.6717 20 24.4974 20 24.3155L20 22.5732C20 22.4263 19.7584 22.2869 19.3402 22.1927L14.4317 21.1349C13.5736 20.9498 12.3482 20.9558 11.5156 21.1491L6.71252 22.1927C6.27466 22.2842 6.01294 22.4239 6 22.5732L6 24.3137C6 24.6927 7.14017 25 8.54666 25L9.95853 25C10.1994 25.0005 10.431 24.975 10.6019 24.9293C10.7729 24.8836 10.869 24.8213 10.869 24.7564L10.8954 24.7564L10.8954 24.1431Z" fill="#1979FF" fill-opacity="0.400000"/>
	</g>
	<path d="M12.296 12.296C9.45285 12.296 7.14801 9.99117 7.14801 7.14801C7.14801 4.30485 9.45285 2.00002 12.296 2.00002C13.6623 1.99696 14.9734 2.53837 15.9396 3.50446C16.9057 4.47057 17.4471 5.78175 17.444 7.14801C17.444 9.99117 15.1392 12.296 12.296 12.296ZM15.728 7.148C15.728 5.25256 14.1915 3.716 12.296 3.716C10.4006 3.716 8.86401 5.25256 8.86401 7.148C8.86401 9.04344 10.4006 10.58 12.296 10.58C14.1915 10.58 15.728 9.04344 15.728 7.148Z" fill="#1979FF" fill-opacity="1.000000"/>
	<path d="M11.438 19.302L11.438 16.442C11.438 15.87 11.724 15.584 12.296 15.584L12.296 15.584C12.868 15.584 13.154 15.87 13.154 16.442L13.154 19.302C13.154 19.874 12.868 20.16 12.296 20.16L12.296 20.16C11.724 20.16 11.438 19.874 11.438 19.302Z" fill="#1979FF"/>
	<path d="M3.14401 22.592C2.51218 22.592 2 22.0798 2 21.448C2 15.7617 6.60968 11.152 12.296 11.152C17.9823 11.152 22.592 15.7617 22.592 21.448C22.592 22.0798 22.0798 22.592 21.448 22.592L3.14401 22.592ZM20.8531 20.876C20.5521 16.3709 16.8111 12.87 12.296 12.868L12.2502 12.868C7.73514 12.87 3.99411 16.3709 3.69312 20.876L20.8531 20.876Z" fill="#1979FF" fill-opacity="1.000000"/>
	<defs>
		<filter id="filter_2_907_dd" x="0.000000" y="15.000000" width="26.000000" height="16.000000" filterUnits="userSpaceOnUse" color-interpolation-filters="sRGB">
			<feFlood flood-opacity="0" result="BackgroundImageFix"/>
			<feBlend mode="normal" in="SourceGraphic" in2="BackgroundImageFix" result="shape"/>
			<feGaussianBlur stdDeviation="3" result="effect_layerBlur_1"/>
		</filter>
	</defs>
</svg>
