<svg width="25.000000" height="25.000000" viewBox="0 0 25 25" fill="none" xmlns="http://www.w3.org/2000/svg" xmlns:xlink="http://www.w3.org/1999/xlink">
	<desc>
			Created with Pixso.
	</desc>
	<path d="M21.0142 9.39163C21.0142 4.76929 17.2539 1.00897 12.6316 1.00897C8.00928 1.00897 4.24902 4.76929 4.24902 9.39163L4.24902 19.3968L1.81519 19.3968C1.36743 19.3968 1.00415 19.7602 1.00415 20.2079C1.00415 20.6557 1.36743 21.0191 1.81519 21.0191L9.12817 21.0191C9.2666 22.8314 10.7847 24.2641 12.6318 24.2641C14.479 24.2641 15.9971 22.8314 16.1357 21.0191L23.4485 21.0191C23.8962 21.0191 24.2595 20.6557 24.2595 20.2079C24.2593 19.7602 23.896 19.3968 23.448 19.3968L21.0142 19.3968L21.0142 9.39163ZM5.87134 9.39163L5.87134 19.3968L19.3921 19.3968L19.3921 9.39163C19.3921 5.66395 16.3594 2.63123 12.6318 2.63123C8.90405 2.63123 5.87134 5.66395 5.87134 9.39163ZM14.5054 21.0193C14.3735 21.9351 13.5835 22.6419 12.6318 22.6419C11.6799 22.6419 10.8899 21.9351 10.7578 21.0193L14.5054 21.0193Z" fill="#B0B4B9" fill-opacity="1.000000"/>
	<defs/>
</svg>
