<svg width="25.000000" height="25.000000" viewBox="0 0 25 25" fill="none" xmlns="http://www.w3.org/2000/svg" xmlns:xlink="http://www.w3.org/1999/xlink">
	<desc>
			Created with Pixso.
	</desc>
	<path d="M12.2959 13.296C9.45288 13.296 7.14795 10.9912 7.14795 8.14801C7.14795 5.30485 9.45288 3.00002 12.2959 3.00002C13.6621 2.99696 14.9734 3.53837 15.9395 4.50446C16.9055 5.47057 17.447 6.78175 17.4438 8.14801C17.4438 10.9912 15.1392 13.296 12.2959 13.296ZM15.728 8.148C15.728 6.25256 14.1914 4.716 12.2959 4.716C10.4006 4.716 8.86401 6.25256 8.86401 8.148C8.86401 10.0434 10.4006 11.58 12.2959 11.58C14.1914 11.58 15.728 10.0434 15.728 8.148Z" fill="#B0B4B9" fill-opacity="1.000000"/>
	<path d="M11.438 20.302L11.438 17.442C11.438 16.87 11.7239 16.584 12.2959 16.584L12.2959 16.584C12.8679 16.584 13.1541 16.87 13.1541 17.442L13.1541 20.302C13.1541 20.874 12.8679 21.16 12.2959 21.16L12.2959 21.16C11.7239 21.16 11.438 20.874 11.438 20.302Z" fill="#777C83"/>
	<path d="M3.14404 23.592C2.51221 23.592 2 23.0798 2 22.448C2 16.7617 6.60962 12.152 12.2959 12.152C17.9824 12.152 22.592 16.7617 22.592 22.448C22.592 23.0798 22.0798 23.592 21.448 23.592L3.14404 23.592ZM20.853 21.876C20.552 17.3709 16.811 13.87 12.2959 13.868L12.2502 13.868C7.73511 13.87 3.99414 17.3709 3.69312 21.876L20.853 21.876Z" fill="#B0B4B9" fill-opacity="1.000000"/>
	<defs/>
</svg>
