<svg width="26.000000" height="29.000000" viewBox="0 0 26 29" fill="none" xmlns="http://www.w3.org/2000/svg" xmlns:xlink="http://www.w3.org/1999/xlink">
	<desc>
			Created with Pixso.
	</desc>
	<g filter="url(#filter_2_1080_dd)">
		<path d="M10.8953 22.3573C10.8953 22.2407 11.3611 22.146 11.9377 22.1453L14.0557 22.1453C14.635 22.1453 15.1047 22.2402 15.1047 22.3573L15.1047 22.3573L15.1047 22.816C15.1045 22.9171 15.5083 22.9993 16.0085 23L17.4534 23C18.1282 23.0004 18.7759 22.9464 19.2537 22.8501C19.7314 22.7538 20 22.623 20 22.4866L20 21.1799C20 21.0697 19.7583 20.9652 19.3403 20.8945L14.4316 20.1011C13.5737 19.9624 12.3481 19.9669 11.5156 20.1118L6.71265 20.8945C6.27466 20.9631 6.01294 21.0679 6 21.1799L6 22.4853C6 22.7696 7.14014 23 8.54663 23L9.9585 23C10.1995 23.0004 10.4309 22.9813 10.6018 22.947C10.7729 22.9127 10.8689 22.866 10.8689 22.8173L10.8953 22.8173L10.8953 22.3573Z" fill="#1979FF" fill-opacity="0.400000"/>
	</g>
	<g opacity="0.400000">
		<path d="M14.1365 18.703L5.23975 15.0681Q5.08667 14.991 5.01392 14.8104L5.01392 13.5139L3.51392 13.5139Q3.51392 13.6315 3.47754 13.9361Q3.40039 14.5816 3.51392 15.0797L3.51392 21.0789Q3.51685 21.5353 3.72754 21.9395L3.73291 21.9498L3.73877 21.9599Q4.61133 23.5138 6.17163 22.6747L14.1365 18.703ZM5.46802 21.3499Q5.2041 21.4932 5.05273 21.236Q5.0144 21.1578 5.01392 21.0698L5.01392 16.5962L10.5027 18.8388L5.47949 21.3437L5.46802 21.3499Z" fill-rule="evenodd" fill="#1979FF"/>
	</g>
	<path d="M18.5098 2L5.50977 2C4.40527 2 3.50977 2.89543 3.50977 4L3.50977 15.9579L17.7444 21.8545C19.0613 22.4 20.5098 21.4321 20.5098 20.0067L20.5098 4C20.5098 2.89543 19.6143 2 18.5098 2ZM18.5098 3.5L5.50977 3.5Q5.00977 3.5 5.00977 4L5.00977 14.9557L18.3184 20.4687Q18.5654 20.5709 18.7876 20.4225Q19.0098 20.274 19.0098 20.0067L19.0098 4Q19.0098 3.5 18.5098 3.5Z" fill-rule="evenodd" fill="#1979FF"/>
	<path d="M8.40088 9.93987C7.94946 9.93987 7.58325 9.57112 7.58325 9.11626C7.58325 8.6614 7.94946 8.29266 8.40088 8.29266L16.238 8.29266C16.6897 8.29266 17.0559 8.6614 17.0559 9.11626C17.0559 9.57112 16.6897 9.93987 16.238 9.93987L8.40088 9.93987Z" fill-rule="evenodd" fill="#1979FF"/>
	<defs>
		<filter id="filter_2_1080_dd" x="0.000000" y="14.000000" width="26.000000" height="15.000000" filterUnits="userSpaceOnUse" color-interpolation-filters="sRGB">
			<feFlood flood-opacity="0" result="BackgroundImageFix"/>
			<feBlend mode="normal" in="SourceGraphic" in2="BackgroundImageFix" result="shape"/>
			<feGaussianBlur stdDeviation="3" result="effect_layerBlur_1"/>
		</filter>
	</defs>
</svg>
