<svg width="25.000000" height="25.000000" viewBox="0 0 25 25" fill="none" xmlns="http://www.w3.org/2000/svg" xmlns:xlink="http://www.w3.org/1999/xlink">
	<desc>
			Created with Pixso.
	</desc>
	<g opacity="0.400000">
		<path d="M14.303 18.7863L5.40649 15.1515Q5.25323 15.0743 5.1806 14.8937L5.1806 13.5972L3.6806 13.5972Q3.6806 13.7148 3.64423 14.0194Q3.56714 14.6649 3.6806 15.163L3.6806 21.1623Q3.68341 21.6186 3.89429 22.0228L3.89966 22.0331L3.90533 22.0432Q4.77802 23.5971 6.3382 22.758L14.303 18.7863ZM5.6347 21.4332Q5.37067 21.5765 5.2193 21.3193Q5.18109 21.2411 5.1806 21.1531L5.1806 16.6795L10.6694 18.9221L5.64618 21.427L5.6347 21.4332Z" fill-rule="evenodd" fill="#8F8D8D"/>
	</g>
	<path d="M18.6765 2.08331L5.67651 2.08331C4.57196 2.08331 3.67651 2.97874 3.67651 4.08331L3.67651 16.0412L17.9111 21.9378C19.228 22.4833 20.6765 21.5154 20.6765 20.09L20.6765 4.08331C20.6765 2.97874 19.7811 2.08331 18.6765 2.08331ZM18.6765 3.58331L5.67651 3.58331Q5.17651 3.58331 5.17651 4.08331L5.17651 15.039L18.4852 20.552Q18.7321 20.6542 18.9543 20.5058Q19.1765 20.3573 19.1765 20.09L19.1765 4.08331Q19.1765 3.58331 18.6765 3.58331Z" fill-rule="evenodd" fill="#969696"/>
	<path d="M8.56757 10.0232C8.11597 10.0232 7.74988 9.65444 7.74988 9.19958C7.74988 8.74471 8.11597 8.37598 8.56757 8.37598L16.4048 8.37598C16.8564 8.37598 17.2225 8.74471 17.2225 9.19958C17.2225 9.65444 16.8564 10.0232 16.4048 10.0232L8.56757 10.0232Z" fill-rule="evenodd" fill="#757377"/>
	<defs/>
</svg>
