<svg width="26.000000" height="30.000000" viewBox="0 0 26 30" fill="none" xmlns="http://www.w3.org/2000/svg" xmlns:xlink="http://www.w3.org/1999/xlink">
	<desc>
			Created with Pixso.
	</desc>
	<g filter="url(#filter_2_446_dd)">
		<path d="M10.8954 23.1431C10.8954 22.9876 11.361 22.8613 11.9378 22.8604L14.0556 22.8604C14.6349 22.8604 15.1046 22.9869 15.1046 23.1431L15.1046 23.1431L15.1046 23.7546C15.1046 23.8895 15.5082 23.999 16.0085 24L17.4533 24C18.1281 24.0005 18.7759 23.9286 19.2537 23.8001C19.7315 23.6717 20 23.4974 20 23.3155L20 21.5732C20 21.4263 19.7584 21.2869 19.3402 21.1927L14.4317 20.1349C13.5736 19.9498 12.3482 19.9558 11.5156 20.1491L6.71252 21.1927C6.27466 21.2842 6.01294 21.4239 6 21.5732L6 23.3137C6 23.6927 7.14017 24 8.54666 24L9.95853 24C10.1994 24.0005 10.431 23.975 10.6019 23.9293C10.7729 23.8836 10.869 23.8213 10.869 23.7564L10.8954 23.7564L10.8954 23.1431Z" fill="#1979FF" fill-opacity="0.400000"/>
	</g>
	<path d="M21.0143 9.39163C21.0143 4.76929 17.254 1.00897 12.6317 1.00897C8.00931 1.00897 4.24899 4.76929 4.24899 9.39163L4.24899 19.3968L1.81534 19.3968C1.36758 19.3968 1.00421 19.7602 1.00421 20.2079C1.00421 20.6557 1.36758 21.0191 1.81534 21.0191L9.12811 21.0191C9.26678 22.8314 10.7847 24.2641 12.6319 24.2641C14.4792 24.2641 15.9971 22.8314 16.1357 21.0191L23.4485 21.0191C23.8963 21.0191 24.2596 20.6557 24.2596 20.2079C24.2594 19.7602 23.896 19.3968 23.448 19.3968L21.0143 19.3968L21.0143 9.39163ZM5.87125 9.39163L5.87125 19.3968L19.3921 19.3968L19.3921 9.39163C19.3921 5.66395 16.3593 2.63123 12.6317 2.63123C8.90396 2.63123 5.87125 5.66395 5.87125 9.39163ZM10.7577 21.0193L14.5053 21.0193C14.3734 21.9351 13.5834 22.6419 12.6317 22.6419C11.6799 22.6419 10.8899 21.9351 10.7577 21.0193Z" fill="#1979FF" fill-opacity="1.000000"/>
	<defs>
		<filter id="filter_2_446_dd" x="0.000000" y="14.000000" width="26.000000" height="16.000000" filterUnits="userSpaceOnUse" color-interpolation-filters="sRGB">
			<feFlood flood-opacity="0" result="BackgroundImageFix"/>
			<feBlend mode="normal" in="SourceGraphic" in2="BackgroundImageFix" result="shape"/>
			<feGaussianBlur stdDeviation="3" result="effect_layerBlur_1"/>
		</filter>
	</defs>
</svg>
