<svg width="20.000000" height="20.000000" viewBox="0 0 20 20" fill="none" xmlns="http://www.w3.org/2000/svg" xmlns:xlink="http://www.w3.org/1999/xlink">
	<desc>
			Created with Pixso.
	</desc>
	<g opacity="0.400000">
		<path d="M15.6716 15.9451C15.5127 17.3958 14.5774 18.2758 13.1746 18.3008C12.0967 18.325 11.0415 18.3333 10.0032 18.3333C8.90088 18.3333 7.823 18.325 6.77686 18.3008C5.4209 18.2683 4.48486 17.3708 4.33398 15.9451C4.073 13.5727 3.63696 7.96368 3.62891 7.90701C3.62085 7.73618 3.67603 7.5737 3.78784 7.44205C3.89795 7.32037 4.05688 7.24704 4.22388 7.24704L15.7827 7.24704C15.9487 7.24704 16.0996 7.32037 16.2188 7.44205C16.3296 7.5737 16.3855 7.73618 16.3694 7.90701C16.3694 7.96368 15.9253 13.581 15.6716 15.9451Z" fill="#FF4048"/>
	</g>
	<path d="M16.906 4.3699L14.4761 4.3699C13.9817 4.3699 13.5522 4.01825 13.4421 3.52243L13.3059 2.91495C13.1155 2.18082 12.458 1.66666 11.7207 1.66666L8.28027 1.66666C7.53467 1.66666 6.88379 2.18082 6.68604 2.95496L6.55884 3.52325C6.44775 4.01825 6.01831 4.3699 5.52466 4.3699L3.09497 4.3699C2.76978 4.3699 2.5 4.63821 2.5 4.98071L2.5 5.29736C2.5 5.63153 2.76978 5.90817 3.09497 5.90817L16.906 5.90817C17.2302 5.90817 17.5 5.63153 17.5 5.29736L17.5 4.98071C17.5 4.63821 17.2302 4.3699 16.906 4.3699Z" fill="#FF5E5E"/>
	<defs/>
</svg>
