<svg width="16.000000" height="16.000000" viewBox="0 0 16 16" fill="none" xmlns="http://www.w3.org/2000/svg" xmlns:xlink="http://www.w3.org/1999/xlink">
	<desc>
			Created with Pixso.
	</desc>
	<g opacity="0.400000">
		<path d="M3.66626 14.5761C3.3396 14.7535 2.93188 14.6351 2.74902 14.3096C2.6958 14.2072 2.66748 14.0935 2.66675 13.9779L2.66675 9.13922C2.66675 9.61896 2.93726 9.9151 3.64868 10.2467L7.99414 12.4144L3.66626 14.5761Z" fill="#1979FF"/>
	</g>
	<path d="M2.6665 9.13922L2.6665 3.8623C2.6665 2.04407 4.13062 1.33337 5.92993 1.33337L10.0461 1.33337C11.8513 1.33337 13.3154 2.04407 13.3333 3.8623L13.3333 13.9779C13.3325 14.0916 13.3042 14.2034 13.2507 14.3036C13.165 14.4672 13.0171 14.5885 12.8408 14.6399C12.6646 14.6912 12.4751 14.6682 12.3159 14.5761L7.9939 12.4144L3.64844 10.2468C2.93701 9.9151 2.6665 9.61896 2.6665 9.13922ZM5.48315 5.36072C5.19409 5.36072 4.95972 5.59668 4.95972 5.88782C4.95972 6.17896 5.19409 6.41492 5.48315 6.41492L10.4988 6.41492C10.7878 6.41492 11.0222 6.17896 11.0222 5.88782C11.0222 5.59668 10.7878 5.36072 10.4988 5.36072L5.48315 5.36072Z" fill="#1979FF" fill-opacity="1.000000"/>
	<defs/>
</svg>
