<svg width="25.000000" height="25.000000" viewBox="0 0 25 25" fill="none" xmlns="http://www.w3.org/2000/svg" xmlns:xlink="http://www.w3.org/1999/xlink">
	<desc>
			Created with Pixso.
	</desc>
	<path d="M11.696 1.25219C12.1062 0.9174 12.6951 0.9174 13.1052 1.25219L22.4111 8.80986C22.6599 9.004 22.8032 9.30251 22.7986 9.61711L22.7986 20.7417C22.8013 21.0246 22.6848 21.2954 22.4775 21.4879C22.2629 21.6946 22.0056 21.7986 21.7041 21.7986L3.09448 21.7986C2.80542 21.8035 2.52661 21.6915 2.32104 21.4879C2.10669 21.2825 2 21.0329 2 20.7417L2 9.61711C1.99707 9.30196 2.14136 9.00348 2.39014 8.80986L11.696 1.25219ZM3.55981 9.86666L3.55981 20.2386L21.2385 20.2386L21.2385 9.86666L12.3992 2.68726L3.55981 9.86666Z" fill="#B0B4B9" fill-opacity="1.000000"/>
	<path d="M11.1331 12.6992L11.1331 16.8589C11.1331 17.5777 11.7 18.1588 12.4006 18.1588C13.1094 18.1495 13.6768 17.5677 13.668 16.8589L13.668 12.6992C13.668 11.9829 13.1013 11.4006 12.4006 11.4006C11.6917 11.4099 11.1245 11.9917 11.1331 12.7005L11.1331 12.6992Z" fill="#777C83"/>
	<defs/>
</svg>
