<svg width="42.000000" height="42.000000" viewBox="0 0 42 42" fill="none" xmlns="http://www.w3.org/2000/svg" xmlns:xlink="http://www.w3.org/1999/xlink">
	<desc>
			Created with Pixso.
	</desc>
	<g opacity="0.400000">
		<path d="M11.2 0C4.05066 0 0 4.05066 0 11.2L0 30.8C0 37.9307 4.03198 42 11.2 42L30.8 42C37.9493 42 42 37.9307 42 30.8L42 11.2C42 4.05066 37.9493 0 30.8 0L11.2 0Z" fill="#CAE0FF"/>
	</g>
	<path d="M22.499 22.4167L22.499 27.514C22.499 28.3347 21.8279 29 21 29C20.1721 29 19.501 28.3347 19.501 27.514L19.501 22.4167L14.3591 22.4167C13.5868 22.3374 13 21.6923 13 20.9227C13 20.153 13.5868 19.5079 14.3591 19.4286L19.4849 19.4286L19.4849 14.3473C19.5648 13.5818 20.2156 13 20.9919 13C21.7683 13 22.4191 13.5818 22.499 14.3473L22.499 19.4286L27.6409 19.4286C28.4132 19.5079 29 20.153 29 20.9227C29 21.6923 28.4132 22.3374 27.6409 22.4167L27.6409 22.4167L22.499 22.4167Z" fill="#1979FF"/>
	<defs/>
</svg>
