<svg width="40.000000" height="40.000000" viewBox="0 0 40 40" fill="none" xmlns="http://www.w3.org/2000/svg" xmlns:xlink="http://www.w3.org/1999/xlink">
	<desc>
			Created with Pixso.
	</desc>
	<path d="M20 40C8.9541 40 0 31.0459 0 20C0 8.95407 8.9541 0 20 0C31.0459 0 40 8.95407 40 20C40 31.0459 31.0459 40 20 40ZM26.4785 27.2198C27.3748 26.2162 27.5171 25.5999 27.8212 24.6781C27.8674 24.5376 28.0157 24.7875 28.2183 25.1286C28.5621 25.7079 29.062 26.5502 29.4829 26.1888C29.7614 25.9498 30.3191 24.9532 29.7614 22.8408C29.3992 21.468 28.8174 20.7839 28.4607 20.3643C28.2686 20.1383 28.1417 19.9891 28.1497 19.8504C28.1981 19.0261 28.17 18.4472 28.1292 18.2971C27.9302 17.571 27.5142 17.731 27.5142 17.571C27.5142 13.39 24.4105 10 20.582 10C16.7537 10 13.6499 13.3894 13.6499 17.571C13.6499 17.9028 13.3594 17.6574 13.1207 18.2971C13.0685 18.4361 13.0789 18.5503 13.0975 18.7562C13.1172 18.9733 13.1461 19.2925 13.1207 19.8504C13.1067 20.1425 11.8627 21.4663 11.369 22.8408C10.8794 24.2043 10.8118 25.6291 11.568 26.1888C12.0684 26.5591 12.546 25.6235 12.8386 25.0502C12.9883 24.7571 13.0895 24.5587 13.1207 24.6781C13.1604 24.8317 13.2106 24.9918 13.2706 25.1565C13.5134 25.8172 13.9196 26.548 14.5089 27.2315C14.5563 27.2865 14.4519 27.3598 14.277 27.4825C14.0098 27.6699 13.5781 27.9728 13.2706 28.5027C12.7618 29.3795 13.4171 30.9738 15.9473 30.9738C18.7893 30.9738 19.7102 30.0921 19.9448 29.8675C19.9796 29.8341 19.9994 29.8153 20.0079 29.8159C20.1581 29.8275 20.2218 29.8248 20.3096 29.821C20.3638 29.8187 20.4271 29.8159 20.5255 29.8159C20.6581 29.8159 20.7118 29.8205 20.7513 29.8238C20.8057 29.8285 20.8334 29.8308 21.0034 29.8159C21.0365 29.8131 21.132 29.8723 21.2825 29.9656C21.8518 30.3183 23.2078 31.1586 24.9445 30.9738C28.5919 30.5849 28.1415 29.3682 27.844 28.5647L27.8212 28.5027C27.5939 27.883 26.941 27.5072 26.6367 27.332C26.53 27.2706 26.4661 27.2338 26.4785 27.2198Z" fill="#FF4848" fill-opacity="1.000000"/>
	<defs/>
</svg>
