<svg width="24.000000" height="24.000000" viewBox="0 0 24 24" fill="none" xmlns="http://www.w3.org/2000/svg" xmlns:xlink="http://www.w3.org/1999/xlink">
	<desc>
			Created with Pixso.
	</desc>
	<path d="M9.10962 12.0101C9.10962 10.4401 10.4075 9.18005 12.012 9.18005C13.6165 9.18005 14.8837 10.4401 14.8837 12.0101C14.8837 13.5801 13.6165 14.8301 12.012 14.8301C10.4075 14.8301 9.10962 13.5801 9.10962 12.0101Z" fill="#1979FF"/>
	<g opacity="0.400000">
		<path d="M20.4022 13.5801C20.1161 13.4401 19.9321 13.2101 19.7686 12.9401C19.2474 12.0801 19.554 10.9501 20.4227 10.4401C21.4446 9.87012 21.7716 8.6001 21.1789 7.61011L20.4942 6.43011C19.9117 5.44012 18.6342 5.09015 17.6225 5.6701C16.7232 6.15015 15.5684 5.83014 15.0472 4.9801C14.8837 4.70013 14.7917 4.40015 14.8121 4.1001C14.8428 3.71014 14.7202 3.34015 14.5362 3.0401C14.1581 2.4201 13.4734 2.00012 12.7171 2.00012L11.2762 2.00012C10.5301 2.02014 9.8454 2.4201 9.46729 3.0401C9.2731 3.34015 9.16071 3.71014 9.18112 4.1001C9.20157 4.40015 9.10959 4.70013 8.94608 4.9801C8.4249 5.83014 7.27008 6.15015 6.38098 5.6701C5.35901 5.09015 4.0918 5.44012 3.49905 6.43011L2.81433 7.61011C2.23181 8.6001 2.55884 9.87012 3.57059 10.4401C4.43924 10.9501 4.74585 12.0801 4.23486 12.9401C4.06113 13.2101 3.87717 13.4401 3.59103 13.5801C3.24356 13.7701 2.93698 14.0701 2.77347 14.3701C2.39532 14.9901 2.41577 15.7701 2.79388 16.4201L3.49905 17.6201C3.87717 18.2601 4.58234 18.6601 5.31815 18.6601C5.66559 18.6601 6.07437 18.5601 6.4014 18.3601C6.65689 18.1901 6.96347 18.1301 7.30072 18.1301C8.31247 18.1301 9.16071 18.9601 9.18112 19.9501C9.18112 21.1001 10.1213 22.0001 11.3068 22.0001L12.6967 22.0001C13.8719 22.0001 14.8121 21.1001 14.8121 19.9501C14.8428 18.9601 15.691 18.1301 16.7027 18.1301C17.0298 18.1301 17.3364 18.1901 17.6021 18.3601C17.9291 18.5601 18.3276 18.6601 18.6853 18.6601C19.4109 18.6601 20.1161 18.2601 20.4942 17.6201L21.2096 16.4201C21.5775 15.7501 21.6081 14.9901 21.23 14.3701C21.0358 14.0701 20.7599 13.7701 20.4022 13.5801Z" fill="#FFFFFF"/>
	</g>
	<defs/>
</svg>
