<svg width="12.499985" height="10.000000" viewBox="0 0 12.5 10" fill="none" xmlns="http://www.w3.org/2000/svg" xmlns:xlink="http://www.w3.org/1999/xlink">
	<desc>
			Created with Pixso.
	</desc>
	<path d="M6.25 0C7.54268 0 8.7683 0.448486 9.83537 1.27879C10.9024 2.10242 11.811 3.30909 12.4634 4.81818C12.5122 4.93272 12.5122 5.06667 12.4634 5.17576C11.1585 8.19394 8.83536 10 6.25 10L6.2439 10C3.66463 10 1.34146 8.19394 0.0365906 5.17576C-0.0121918 5.06667 -0.0121918 4.93272 0.0365906 4.81818C1.34146 1.79939 3.66463 0 6.2439 0L6.25 0ZM6.24994 2.57574C4.90237 2.57574 3.81091 3.66059 3.81091 4.99998C3.81091 6.33332 4.90237 7.41817 6.24994 7.41817C7.5914 7.41817 8.68286 6.33332 8.68286 4.99998C8.68286 3.66059 7.5914 2.57574 6.24994 2.57574Z" fill="#9EC4FA" fill-opacity="1.000000"/>
	<path d="M6.25107 6.50716C5.40961 6.50716 4.72668 5.82836 4.72668 4.99806C4.72668 4.89503 4.73888 4.79867 4.75717 4.7017L4.78766 4.7017C5.46449 4.7017 6.01328 4.16837 6.03766 3.50109C6.10474 3.48958 6.1779 3.48291 6.25107 3.48291C7.08644 3.48291 7.76936 4.1617 7.76936 4.99806C7.76936 5.82836 7.08644 6.50716 6.25107 6.50716Z" fill="#200E32"/>
	<defs/>
</svg>
