<svg width="46.000000" height="46.000000" viewBox="0 0 46 46" fill="none" xmlns="http://www.w3.org/2000/svg" xmlns:xlink="http://www.w3.org/1999/xlink">
	<desc>
			Created with Pixso.
	</desc>
	<g opacity="0.400000">
		<rect rx="23.000000" width="46.000000" height="46.000000" fill="#CAE0FF"/>
	</g>
	<path d="M15.0026 30.4304L15.0026 15.5989C15.0124 14.7077 15.7415 13.9926 16.6327 14.0001L23.9079 14.0001L23.9079 15.3044L16.6327 15.3044C16.4717 15.3068 16.3422 15.4378 16.3418 15.5989L16.3418 30.4304C16.3422 30.5915 16.4717 30.7225 16.6327 30.7249L16.6327 32.0292C15.7415 32.0367 15.0124 31.3215 15.0026 30.4304ZM18.0462 16.0742C17.5596 16.0522 17.1447 16.4233 17.1125 16.9094L17.1125 31.9638C17.1447 32.4499 17.5596 32.8211 18.0462 32.7991L30.1823 32.7991C30.669 32.8211 31.0839 32.4499 31.116 31.9638L31.116 19.2602L27.8879 16.0742L18.0462 16.0742ZM24.7718 30.7079L23.4586 30.7079C23.308 30.709 23.1841 30.5898 23.1793 30.4393L23.1793 21.7802C23.1841 21.6297 23.308 21.5106 23.4586 21.5116L24.7718 21.5116C24.9224 21.5106 25.0463 21.6297 25.0511 21.7802L25.0511 30.4384C25.0468 30.59 24.9225 30.7094 24.7718 30.7079ZM26.6544 30.7079L28.1118 30.7079C28.2226 30.7094 28.3142 30.6218 28.3168 30.511L28.3168 25.8909C28.3148 25.7789 28.2229 25.6894 28.1108 25.6904L26.6544 25.6904C26.6005 25.6896 26.5485 25.7104 26.5099 25.748C26.4713 25.7856 26.4492 25.837 26.4485 25.8909L26.4485 30.5074C26.4492 30.5613 26.4713 30.6127 26.5099 30.6503C26.5485 30.6879 26.6005 30.7086 26.6544 30.7079ZM21.447 30.7079C21.5347 30.7091 21.6191 30.6754 21.6819 30.6143C21.7448 30.5532 21.7806 30.4697 21.7827 30.382L21.7827 28.5254C21.7816 28.4378 21.7456 28.3543 21.6828 28.2932C21.6201 28.2321 21.5355 28.1984 21.4479 28.1996L20.2484 28.1996C20.1608 28.1984 20.0763 28.2321 20.0135 28.2932C19.9507 28.3543 19.9147 28.4378 19.9136 28.5254L19.9136 30.382C19.9147 30.4697 19.9507 30.5532 20.0135 30.6143C20.0763 30.6754 20.1608 30.7091 20.2484 30.7079L21.447 30.7079Z" fill="#1979FF" fill-opacity="1.000000"/>
	<defs/>
</svg>
