<svg width="46.000000" height="46.000000" viewBox="0 0 46 46" fill="none" xmlns="http://www.w3.org/2000/svg" xmlns:xlink="http://www.w3.org/1999/xlink">
	<desc>
			Created with Pixso.
	</desc>
	<g opacity="0.400000">
		<rect rx="23.000000" width="46.000000" height="46.000000" fill="#B0ECFF"/>
	</g>
	<path d="M27.72 13C28.4429 13 29.1634 13.3602 29.6042 13.9219L34.0123 19.4131C34.7352 20.3351 34.6949 21.6978 33.8536 22.6248L25.1155 32.0455C24.6747 32.5266 24.0752 32.7659 23.4329 32.8062L23.3522 32.8062C22.7527 32.8062 22.1508 32.5643 21.7099 32.1638L21.589 32.0429L12.6494 22.5819C11.8459 21.6978 11.7678 20.3351 12.5285 19.4131L16.9366 13.9219C17.4177 13.3199 18.1003 13 18.8207 13L27.72 13ZM22.1911 24.9769C22.8334 25.5789 23.8334 25.5386 24.4757 24.8962L28.6445 20.3672C28.9241 20.0448 28.9241 19.5234 28.6017 19.2463C28.2415 18.9667 27.7604 19.007 27.4405 19.327L23.4908 23.5411C23.3699 23.667 23.171 23.667 23.05 23.5411L18.982 19.2438C18.6621 18.9239 18.181 18.8836 17.8208 19.2035C17.5009 19.4857 17.5009 20.007 17.7805 20.327L22.1105 24.8962L22.1911 24.9769Z" fill="#2D9590" fill-opacity="1.000000"/>
	<defs/>
</svg>
