<svg width="39.884338" height="39.884392" viewBox="0 0 39.8843 39.8844" fill="none" xmlns="http://www.w3.org/2000/svg" xmlns:xlink="http://www.w3.org/1999/xlink">
	<desc>
			Created with Pixso.
	</desc>
	<path d="M13.1793 15.5491C12.4855 15.5491 11.7919 15.0867 11.7919 14.3931C11.7919 13.6994 12.4855 13.237 13.1793 13.237C13.8729 13.237 14.3353 13.6705 14.3353 14.3931C14.3353 15.0867 13.8729 15.5491 13.1793 15.5491ZM20.7515 14.3931C20.7515 13.6994 20.2891 13.237 19.5955 13.237C18.9018 13.237 18.2082 13.6994 18.2082 14.3931C18.2082 15.0867 18.9018 15.5491 19.5955 15.5491C20.2891 15.5491 20.7515 15.0578 20.7515 14.3931ZM22.5723 21.7919C22.1387 21.7919 21.6763 21.3584 21.6763 20.8671C21.6763 20.4335 22.1098 19.9422 22.5723 19.9422C23.2659 19.9422 23.7283 20.4046 23.7283 20.8671C23.7283 21.3295 23.2659 21.7919 22.5723 21.7919ZM27.6013 21.7919C27.1677 21.7919 26.7053 21.3584 26.7053 20.8671C26.7053 20.4335 27.1387 19.9422 27.6013 19.9422C28.2949 19.9422 28.7573 20.4046 28.7573 20.8671C28.7573 21.3295 28.2949 21.7919 27.6013 21.7919Z" fill="#28C445" fill-opacity="1.000000"/>
	<path d="M19.9422 0C8.9306 0 0 8.93063 0 19.9422C0 30.9538 8.9306 39.8844 19.9422 39.8844C30.9538 39.8844 39.8843 30.9538 39.8843 19.9422C39.8843 8.93063 30.9538 0 19.9422 0ZM16.1559 25.0578C14.9999 25.0578 14.075 24.8266 12.9767 24.5665L9.79755 26.185L10.6935 23.3815C8.41034 21.763 7.02301 19.6532 7.02301 17.1387C7.02301 12.7167 11.1559 9.24854 16.1559 9.24854C20.6357 9.24854 24.5953 12.0231 25.3757 15.7514C25.0866 15.7225 24.7975 15.6936 24.5086 15.6936C20.1733 15.7514 16.7629 19.0173 16.7629 23.0636C16.7629 23.7283 16.8785 24.3641 17.0519 25C16.7629 25.0289 16.445 25.0578 16.1559 25.0578ZM30.3758 30.607L29.6821 28.2948C31.5029 26.9075 32.8613 25.0578 32.8613 22.9769C32.8613 19.2775 29.2197 16.2428 25.0867 16.2428C20.7515 16.2428 17.3122 19.2486 17.341 22.948C17.341 26.6763 20.7803 29.6821 25.1445 29.6821C26.0694 29.6821 26.9942 29.4509 27.8902 29.2197L30.3758 30.607Z" fill-rule="evenodd" clip-rule="evenodd" fill="#28C445" fill-opacity="1.000000"/>
	<defs/>
</svg>
